<?xml version="1.0" encoding="UTF-8"?>
<svg version="1.1" xmlns="http://www.w3.org/2000/svg" width="400" height="400" viewBox="0 0 400 400">
  <!-- Background -->
  <rect width="400" height="400" fill="#f8f9fa"/>

  <!-- Bull silhouette - symmetric design -->
  <g transform="translate(200,200)">
    <!-- Bull body -->
    <ellipse cx="0" cy="20" rx="80" ry="45" fill="#000"/>

    <!-- Bull head -->
    <ellipse cx="0" cy="-40" rx="35" ry="30" fill="#000"/>

    <!-- Bull horns - symmetric -->
    <path d="M -25,-60 Q -35,-75 -30,-85" stroke="#000" stroke-width="8" fill="none" stroke-linecap="round"/>
    <path d="M 25,-60 Q 35,-75 30,-85" stroke="#000" stroke-width="8" fill="none" stroke-linecap="round"/>

    <!-- Bull legs - symmetric -->
    <rect x="-50" y="55" width="12" height="30" fill="#000"/>
    <rect x="-25" y="55" width="12" height="30" fill="#000"/>
    <rect x="13" y="55" width="12" height="30" fill="#000"/>
    <rect x="38" y="55" width="12" height="30" fill="#000"/>

    <!-- Bull tail -->
    <path d="M -80,10 Q -95,5 -90,20" stroke="#000" stroke-width="6" fill="none" stroke-linecap="round"/>

    <!-- Bull eye -->
    <circle cx="-8" cy="-45" r="3" fill="#fff"/>
    <circle cx="8" cy="-45" r="3" fill="#fff"/>

    <!-- Chart bars underneath - symmetric -->
    <rect x="-60" y="90" width="15" height="40" fill="#000"/>
    <rect x="-35" y="100" width="15" height="30" fill="#000"/>
    <rect x="-10" y="85" width="15" height="45" fill="#000"/>
    <rect x="15" y="95" width="15" height="35" fill="#000"/>
    <rect x="40" y="80" width="15" height="50" fill="#000"/>

    <!-- Upward arrow -->
    <path d="M 70,60 L 85,45 L 100,60 L 95,55 L 95,80 L 75,80 L 75,55 Z" fill="#000"/>
  </g>
</svg>