<?xml version="1.0" encoding="UTF-8"?>
<svg version="1.1" xmlns="http://www.w3.org/2000/svg" width="1024" height="1024">
<path d="M0 0 C337.92 0 675.84 0 1024 0 C1024 337.92 1024 675.84 1024 1024 C686.08 1024 348.16 1024 0 1024 C0 686.08 0 348.16 0 0 Z " fill="#FDFEFE" transform="translate(0,0)"/>
<path d="M0 0 C1.11068848 0.5254541 2.22137695 1.0509082 3.36572266 1.59228516 C19.40116359 9.19172034 34.81702197 17.53387209 48.87426758 28.45629883 C52.91429022 31.55885142 56.18800829 32.82332685 61.3125 33.6875 C67.81362468 34.81362468 67.81362468 34.81362468 70 37 C68.95199219 37.58007812 68.95199219 37.58007812 67.8828125 38.171875 C66.97273438 38.69265625 66.06265625 39.2134375 65.125 39.75 C63.76761719 40.51570313 63.76761719 40.51570313 62.3828125 41.296875 C59.24738669 43.53793345 58.29740899 45.33450968 57.62890625 49.078125 C57.43975133 55.26460358 58.97183592 59.28572006 63 64 C65.74729301 66.25418914 67.38032967 66.90570234 70.875 67.4375 C73.89845149 67.01421679 75.0625293 66.49930382 77.5625 64.9375 C81.36616901 62.79361383 82.02005937 62.91827255 86 64 C86.79251353 66.99977692 87.58385263 69.99986251 88.375 73 C88.59671875 73.83917969 88.8184375 74.67835938 89.046875 75.54296875 C89.48952548 77.22243674 89.92979391 78.90253436 90.36767578 80.58325195 C90.76982657 82.12027537 91.17889093 83.65551896 91.59716797 85.18823242 C94.1597188 94.81794389 93.87733508 103.38160642 89.97265625 112.5625 C87.91284716 117.72443122 87.91485766 122.6627093 88 128.15234375 C88.00115802 129.74934907 87.99977774 131.34635789 87.99609375 132.94335938 C87.99167169 135.44403473 88.00007088 137.94096117 88.05126953 140.44116211 C88.31200751 154.37417605 88.31200751 154.37417605 85.0637207 158.39941406 C82.742515 159.96666102 80.61756701 161.02308907 78 162 C76.72909003 162.62484414 75.45824168 163.24981368 74.1875 163.875 C67.17279509 166.22723638 58.42913445 166.16351243 51.61328125 163.171875 C48.46188187 160.88272291 47.32516035 157.55116863 46 154 C43.19090113 146.85480492 39.67600029 143.33955939 33.4375 138.875 C32.48746094 138.19179688 31.53742188 137.50859375 30.55859375 136.8046875 C26.9434179 133.92033094 26.9434179 133.92033094 22.625 133.0625 C16.42486493 135.27683395 12.97594252 141.42825361 10 147 C8.70095992 150.30392016 8.70095992 150.30392016 8 153 C9.07544067 153.19577637 9.07544067 153.19577637 10.17260742 153.39550781 C15.01651723 154.43112828 19.634094 156.14022589 24.3125 157.75 C25.31990234 158.08515625 26.32730469 158.4203125 27.36523438 158.765625 C38.28649261 162.52225324 44.22945042 166.19680974 50.1875 176.1875 C51.29361176 177.97548859 52.40441512 179.76058203 53.51953125 181.54296875 C54.36765381 182.89914307 54.36765381 182.89914307 55.23291016 184.28271484 C58.6004408 189.46102599 62.3466363 194.37876915 66.12573242 199.26245117 C66.91040894 200.30816284 66.91040894 200.30816284 67.7109375 201.375 C68.17806152 201.98085938 68.64518555 202.58671875 69.12646484 203.2109375 C70 205 70 205 69.72729492 207.12182617 C68.83585162 209.42389845 67.72081341 210.61043094 65.9375 212.3125 C64.98617187 213.22322266 64.98617187 213.22322266 64.015625 214.15234375 C61.44599764 216.50783549 58.83888109 218.8131998 56.19921875 221.08984375 C52.08029648 224.66738014 48.04760776 228.34222332 44 232 C40.1640625 230.2734375 40.1640625 230.2734375 38.6875 227.8125 C37.7816433 224.10672258 38.01230653 221.68738897 39 218 C39.86625 217.154375 40.7325 216.30875 41.625 215.4375 C44.32712409 213.23147377 44.32712409 213.23147377 44 210.1875 C43.67 209.135625 43.34 208.08375 43 207 C42.82082031 206.36835937 42.64164063 205.73671875 42.45703125 205.0859375 C40.7906863 199.85462426 38.33287959 195.46449454 34 192 C32.3532999 191.38148338 30.68379555 190.8214367 29 190.3125 C25.52600769 189.12334568 24.27963174 188.43617502 22.26953125 185.30078125 C21.32976773 183.2524495 20.4493846 181.17531357 19.64453125 179.0703125 C14.94445266 170.29534392 4.68813902 166.27758058 -3.75 161.75 C-5.74169432 160.67150692 -7.73209353 159.59066573 -9.72198486 158.5088501 C-11.515297 157.53544052 -13.31176418 156.5678501 -15.10839844 155.60058594 C-18 154 -18 154 -21 152 C-20.56072137 148.77862335 -20.11412975 145.5819746 -19.48828125 142.390625 C-16.36821968 126.01583376 -17.10159773 111.0963195 -26.05859375 96.75390625 C-31.66831943 88.7964483 -38.67359153 83.89788734 -47 79 C-46.38253906 79.63164062 -45.76507812 80.26328125 -45.12890625 80.9140625 C-33.49150345 93.20684415 -24.38243551 105.67046368 -24.625 123.125 C-24.63370117 124.63719116 -24.63370117 124.63719116 -24.64257812 126.17993164 C-24.7809223 134.1827578 -25.90988904 141.24917187 -28 149 C-32.95 148.34 -37.9 147.68 -43 147 C-41.59492187 147.72703125 -40.18984375 148.4540625 -38.7421875 149.203125 C-28.51176041 154.51029823 -18.31034871 159.86493942 -8.1875 165.375 C-7.31270996 165.84969727 -6.43791992 166.32439453 -5.53662109 166.81347656 C-3.01461278 168.19227079 -0.50436734 169.58943255 2 171 C2.9079834 171.50950195 3.8159668 172.01900391 4.75146484 172.54394531 C6.08685303 173.31496582 6.08685303 173.31496582 7.44921875 174.1015625 C8.25061279 174.56127441 9.05200684 175.02098633 9.87768555 175.49462891 C14.92640099 179.07571477 17.61875924 185.09833492 19 191 C19.49389544 195.36274306 19.04323039 198.20289415 17.13671875 202.06640625 C14.81737221 207.12928205 13.58592016 212.19345114 12.4375 217.625 C12.11845703 219.06153931 12.11845703 219.06153931 11.79296875 220.52709961 C10.83870228 224.86821195 9.94063156 229.20848328 9.19140625 233.58984375 C9.071604 234.26901855 8.95180176 234.94819336 8.82836914 235.64794922 C8.52270922 237.43009427 8.24460932 239.2169058 7.96875 241.00390625 C6.71744348 244.8738744 5.2021552 246.50748795 2 249 C-1.41796875 250.1875 -1.41796875 250.1875 -5.1875 251 C-9.85545573 252.08267097 -14.07834919 253.32646099 -18.3125 255.625 C-28.62795963 261.09404466 -39.63733805 260.22279729 -51 260 C-50.52396876 253.70501966 -48.97823029 249.00710905 -46.1875 243.375 C-45.84396484 242.65054687 -45.50042969 241.92609375 -45.14648438 241.1796875 C-40.92401057 232.43370049 -40.92401057 232.43370049 -38 229 C-34.984375 228.4140625 -34.984375 228.4140625 -31.75 228.625 C-30.67234375 228.67914062 -29.5946875 228.73328125 -28.484375 228.7890625 C-27.66453125 228.85867188 -26.8446875 228.92828125 -26 229 C-25.34 230.32 -24.68 231.64 -24 233 C-22.35 232.34 -20.7 231.68 -19 231 C-19 229.7625 -19 228.525 -19 227.25 C-18.75 225.0390625 -18.75 225.0390625 -18 223 C-16.01049705 221.51644823 -14.12603367 220.67316287 -11.8125 219.7890625 C-9.80564114 219.14592736 -9.80564114 219.14592736 -9 217 C-8.82528152 214.90051399 -8.73282148 212.79375592 -8.6875 210.6875 C-8.65011719 209.55699219 -8.61273437 208.42648437 -8.57421875 207.26171875 C-9.08898423 203.31833185 -10.17084745 201.74959817 -13 199 C-14.88072321 198.03555829 -14.88072321 198.03555829 -16.875 197.75 C-17.51179688 197.62109375 -18.14859375 197.4921875 -18.8046875 197.359375 C-19.52914063 197.24078125 -20.25359375 197.1221875 -21 197 C-21.90363281 196.82597656 -22.80726563 196.65195312 -23.73828125 196.47265625 C-26.85906954 196.02042226 -29.91419175 195.85471545 -33.0637207 195.75976562 C-40.99582986 195.50486341 -48.25696713 194.45347871 -55.92797852 192.4465332 C-61.37414108 191.049605 -66.63390627 190.46310678 -72.265625 190.2734375 C-76.40513632 189.85948637 -79.04217724 189.16230178 -81.73828125 185.890625 C-82.25777344 185.01921875 -82.77726562 184.1478125 -83.3125 183.25 C-83.89773438 182.27933594 -84.48296875 181.30867187 -85.0859375 180.30859375 C-85.71757813 179.21675781 -86.34921875 178.12492188 -87 177 C-87.54188965 176.06631592 -87.54188965 176.06631592 -88.09472656 175.11376953 C-90.42495645 171.09166005 -92.72249945 167.0521763 -95 163 C-93.16953384 171.39335705 -90.70793037 179.23750555 -87 187 C-86.53464844 188.22332031 -86.06929687 189.44664062 -85.58984375 190.70703125 C-84.12242324 193.22443129 -83.269057 193.90182028 -80.49438477 194.91430664 C-77.33368996 195.55726902 -74.20352639 196.0010034 -71 196.375 C-68.83326009 196.67394878 -66.66659042 196.97340721 -64.5 197.2734375 C-63.5409375 197.39122559 -62.581875 197.50901367 -61.59375 197.63037109 C-59 198 -59 198 -56.98144531 198.51196289 C-54.58633615 199.10188689 -52.25404273 199.32086837 -49.796875 199.53515625 C-48.32734375 199.66567383 -48.32734375 199.66567383 -46.828125 199.79882812 C-45.81234375 199.88583984 -44.7965625 199.97285156 -43.75 200.0625 C-42.71875 200.15337891 -41.6875 200.24425781 -40.625 200.33789062 C-38.08356856 200.56144246 -35.54191609 200.7820399 -33 201 C-34.93394853 205.50430447 -38.00167943 207.07340188 -42.1875 209.3125 C-43.26390747 209.89789551 -43.26390747 209.89789551 -44.36206055 210.49511719 C-46.56603358 211.68069934 -48.7807422 212.84332323 -51 214 C-51.63196289 214.33499512 -52.26392578 214.66999023 -52.91503906 215.01513672 C-60.2708469 218.87148342 -67.66446635 221.71087651 -75.6875 223.875 C-76.43491455 224.07834961 -77.1823291 224.28169922 -77.95239258 224.49121094 C-88.67925283 227.18137648 -99.73805075 227.14404764 -110.734375 227.2109375 C-113.35677708 227.23900526 -115.97917284 227.26766972 -118.6015625 227.296875 C-122.67346947 227.33906311 -126.74533437 227.37602706 -130.81738281 227.40136719 C-156.45770631 227.28977458 -156.45770631 227.28977458 -181 233.9375 C-181.61174072 234.19547363 -182.22348145 234.45344727 -182.85375977 234.71923828 C-187.33170742 236.63130468 -191.70008575 238.71841284 -196 241 C-195.50632253 236.06322525 -194.86859225 231.24837645 -193.9375 226.375 C-192.691243 219.22979317 -192.82219634 212.23068202 -193 205 C-193.33 205 -193.66 205 -194 205 C-194.10957031 205.62229492 -194.21914063 206.24458984 -194.33203125 206.88574219 C-200.57429923 241.45927929 -214.84786462 270.13921969 -244.26953125 290.87890625 C-250.20667983 294.90076051 -256.43404955 298.45088475 -262.625 302.0625 C-283.68934057 314.37749397 -296.9781502 327.15111616 -308 349 C-308.71736328 350.41732422 -308.71736328 350.41732422 -309.44921875 351.86328125 C-313.98284222 362.3462913 -313.43090039 374.10900153 -309.5 384.625 C-308.80390625 386.22214844 -308.80390625 386.22214844 -308.09375 387.8515625 C-307 391 -307 391 -307 398 C-318.55 398 -330.1 398 -342 398 C-342 385.625 -342 385.625 -339.5 380.8125 C-338.80390625 379.42998047 -338.80390625 379.42998047 -338.09375 378.01953125 C-337.7328125 377.35308594 -337.371875 376.68664062 -337 376 C-339.31 376 -341.62 376 -344 376 C-343.4127646 371.89678558 -342.07098163 369.03798321 -339.9375 365.5 C-338.99390625 363.91832031 -338.99390625 363.91832031 -338.03125 362.3046875 C-336.69562254 360.13172437 -335.34187303 357.96977816 -333.96875 355.8203125 C-325.38377484 342.31548619 -319.01851172 327.22184863 -316.1171875 311.41796875 C-314.01101884 300.14582135 -314.01101884 300.14582135 -311.06640625 296.80859375 C-308.77347008 295.28659279 -306.50845938 294.12739747 -304 293 C-294.62821815 287.86820626 -289.24736178 280.81331095 -286.0625 270.5625 C-284.3479106 263.17819471 -284.66745613 255.92500509 -285.50390625 248.4453125 C-286.13969602 242.27607475 -286.18391975 236.13491636 -286.1875 229.9375 C-286.19974609 228.81794922 -286.21199219 227.69839844 -286.22460938 226.54492188 C-286.23606485 220.03439143 -285.6848272 214.29312928 -284 208 C-284.50225098 208.22139648 -285.00450195 208.44279297 -285.52197266 208.67089844 C-305.95004705 217.62069533 -327.99931365 226.14932433 -350.1953125 218.26171875 C-354.36737409 216.3848721 -357.68873234 214.14456769 -361 211 C-361.55300781 210.47535156 -362.10601562 209.95070313 -362.67578125 209.41015625 C-368.56359563 203.20092273 -371.18615289 196.12841047 -371.5625 187.625 C-371.0006066 172.18199423 -360.63040481 160.70696225 -350.85693359 149.67797852 C-346.75140887 144.97239257 -343.15763674 140.48277871 -342.75 134.0625 C-342.8325 133.051875 -342.915 132.04125 -343 131 C-345.83994882 130.18858605 -347.42244783 129.75247764 -350.1875 130.9375 C-355.36413424 132.89311738 -360.46667537 132.88849936 -365.6953125 131.0546875 C-370.61975151 128.71741645 -374.42879404 126.1834127 -378 122 C-378.86625 121.071875 -379.7325 120.14375 -380.625 119.1875 C-384.95108066 113.38144438 -386.4489504 108.18320638 -386 101 C-384.92492187 101.65097656 -383.84984375 102.30195313 -382.7421875 102.97265625 C-376.45480001 106.11634999 -369.89193486 105.48251369 -363.01953125 105.40039062 C-355.72373064 105.47918898 -350.06185587 106.7648701 -344 111 C-342 114 -342 114 -341.6875 117.4375 C-340.84532873 121.80147841 -339.57526823 122.55835341 -336 125 C-332.96703116 129.54945326 -333.24983724 133.67315621 -334 139 C-336.63211239 146.45586123 -341.65610452 152.11123202 -346.80737305 157.93066406 C-354.89592179 167.24667949 -360.48516346 177.1741264 -360.33203125 189.703125 C-359.73300014 195.65115156 -357.38710693 199.03160803 -352.83984375 202.78125 C-343.90039019 209.10901012 -333.86544932 209.01381854 -323.2421875 207.64453125 C-302.25413085 202.74293181 -282.01784892 189.22837084 -267.91137695 173.31713867 C-259.27314283 163.65524425 -248.82899726 158.30377522 -237.30761719 152.72705078 C-230.12837084 149.20018803 -224.19720963 145.08051848 -218 140 C-216.90045251 139.15711346 -215.79742806 138.31874792 -214.69140625 137.484375 C-197.43306622 124.3895822 -180.7112363 108.7947676 -167 92 C-166.57686523 91.49065918 -166.15373047 90.98131836 -165.71777344 90.45654297 C-158.16771359 81.35205904 -151.40720501 71.93420828 -145 62 C-138.16843227 51.48795666 -130.83792147 41.86827715 -122.37109375 32.6171875 C-121.06466977 31.17517091 -119.76493916 29.72662108 -118.49633789 28.2512207 C-113.75320745 22.73510511 -108.71768713 17.56811912 -103.5625 12.4375 C-102.75490234 11.62603516 -101.94730469 10.81457031 -101.11523438 9.97851562 C-92.06549461 0.94336045 -82.63204978 -6.9152362 -72 -14 C-71.26265625 -14.50402344 -70.5253125 -15.00804687 -69.765625 -15.52734375 C-48.43143048 -27.51716107 -18.6801904 -8.98204704 0 0 Z " fill="#020201" transform="translate(620,322)"/>
<path d="M0 0 C1.14863176 3.44589527 0.89125727 3.91234172 -0.4765625 7.10546875 C-0.81494141 7.91532227 -1.15332031 8.72517578 -1.50195312 9.55957031 C-1.87255859 10.42678711 -2.24316406 11.29400391 -2.625 12.1875 C-5.6805227 19.57299917 -8.34390133 26.88839207 -10.63671875 34.546875 C-12.40030911 40.40614463 -14.36904208 46.19850631 -16.3125 52 C-16.67472656 53.08249023 -17.03695313 54.16498047 -17.41015625 55.28027344 C-18.2721886 57.85393732 -19.13541553 60.42719255 -20 63 C-20.66 63 -21.32 63 -22 63 C-23.62946228 60.69404616 -25.1435897 58.39803293 -26.625 56 C-27.25535156 54.99839844 -27.25535156 54.99839844 -27.8984375 53.9765625 C-28.93864592 52.32168546 -29.97014051 50.66133712 -31 49 C-35.30787696 49.84524548 -37.66509368 52.15409577 -40.75 55.125 C-41.82885379 56.13863136 -42.90828044 57.15165335 -43.98828125 58.1640625 C-44.5085791 58.65551758 -45.02887695 59.14697266 -45.56494141 59.65332031 C-51.08757269 64.83583718 -56.94510513 69.65230248 -62.73242188 74.53344727 C-67.63866828 78.67816255 -72.49388092 82.87989839 -77.34204102 87.09228516 C-81.54727635 90.74483858 -85.7672996 94.37932116 -90 98 C-103.74510463 109.73823486 -103.74510463 109.73823486 -117.25 121.75 C-121.46953333 125.57831832 -125.85269142 129.16734587 -130.28125 132.75 C-132.92147729 134.93501569 -135.4672972 137.19171391 -138 139.5 C-142.29991791 143.41891252 -146.75919547 147.09170869 -151.28125 150.75 C-154.78050524 153.64593537 -158.12062616 156.69829956 -161.4765625 159.7578125 C-164.05082358 162.04515904 -166.69289489 164.21548271 -169.375 166.375 C-175.49578831 171.32241831 -181.25037795 176.63167924 -187 182 C-190.614422 180.63982097 -193.88612993 179.02038074 -197.2265625 177.0859375 C-198.24403564 176.49828613 -199.26150879 175.91063477 -200.30981445 175.30517578 C-201.40382568 174.66821777 -202.49783691 174.03125977 -203.625 173.375 C-204.78662723 172.70153036 -205.94833122 172.02819309 -207.11010742 171.35498047 C-216.31948926 166.01030681 -225.48411108 160.590355 -234.63647461 155.14868164 C-240.70257956 151.54258015 -246.77661364 147.95130626 -252.8671875 144.38671875 C-253.52238876 144.00322266 -254.17759003 143.61972656 -254.85264587 143.22460938 C-258.02020306 141.37130547 -261.1888538 139.51989437 -264.35864258 137.67041016 C-264.9391185 137.33090332 -265.51959442 136.99139648 -266.11766052 136.64160156 C-267.7686661 135.67698833 -269.422134 134.71659338 -271.07568359 133.75634766 C-273.63397551 132.21983471 -276.06703073 130.5833704 -278.51953125 128.88671875 C-281.71468266 126.71403615 -281.71468266 126.71403615 -284.49609375 127.328125 C-288.08354716 129.72349171 -291.59917209 132.17770598 -295.0625 134.75 C-296.67356571 135.92963396 -298.28558009 137.10797317 -299.8984375 138.28515625 C-301.15285645 139.20192139 -301.15285645 139.20192139 -302.43261719 140.13720703 C-312.87134803 147.71114354 -323.47785929 155.06388401 -334.24017334 162.17027283 C-339.07843252 165.3684724 -343.86741113 168.63501604 -348.6484375 171.91796875 C-413.32272662 216.24051416 -413.32272662 216.24051416 -441.875 233.5 C-442.93477051 234.14243652 -443.99454102 234.78487305 -445.08642578 235.44677734 C-446.06595215 236.03152832 -447.04547852 236.6162793 -448.0546875 237.21875 C-449.34608643 237.9912207 -449.34608643 237.9912207 -450.66357422 238.77929688 C-452.80664872 239.89898052 -454.63743234 240.54426936 -457 241 C-453.14880785 236.26836153 -449.12719899 232.14498153 -444.4375 228.25 C-443.83035156 227.73832275 -443.22320312 227.22664551 -442.59765625 226.69946289 C-441.34407519 225.64337936 -440.08870512 224.58941571 -438.83154297 223.53759766 C-437.10893787 222.09145437 -435.39795487 220.6330004 -433.69140625 219.16796875 C-427.6787503 214.01622832 -421.55536443 209.04982451 -415.30078125 204.19506836 C-411.09579351 200.91166601 -407.02860027 197.49681829 -403 194 C-396.73586667 188.56881198 -390.28517936 183.42281176 -383.73242188 178.34570312 C-381.46436524 176.58393196 -379.20851953 174.80692156 -376.95288086 173.02929688 C-368.00217148 165.97652286 -359.00566429 158.98239312 -350 152 C-349.40300293 151.53706543 -348.80600586 151.07413086 -348.19091797 150.59716797 C-339.87022181 144.15210863 -331.46439518 137.82537325 -323.03515625 131.5234375 C-320.40097931 129.5515968 -317.77183244 127.5731201 -315.14331055 125.59375 C-313.84235053 124.61677141 -312.53913096 123.64279426 -311.23364258 122.671875 C-307.44186767 119.85112479 -303.69588561 116.98332285 -299.98046875 114.0625 C-298.27880105 112.74979876 -296.57698063 111.43729548 -294.875 110.125 C-294.0811792 109.4870752 -293.2873584 108.84915039 -292.46948242 108.19189453 C-291.7138501 107.61552246 -290.95821777 107.03915039 -290.1796875 106.4453125 C-289.51694824 105.92469238 -288.85420898 105.40407227 -288.17138672 104.86767578 C-286 104 -286 104 -283.09448242 104.65356445 C-280.03971271 105.98272066 -277.19457296 107.43419134 -274.30859375 109.09765625 C-273.21329346 109.72591309 -272.11799316 110.35416992 -270.98950195 111.00146484 C-269.80538863 111.68828235 -268.62139106 112.37529944 -267.4375 113.0625 C-266.19966184 113.7758987 -264.96162087 114.48894561 -263.72338867 115.20166016 C-247.63846125 124.47469747 -231.64181368 133.9006602 -215.65014648 143.33325195 C-213.66087044 144.50457751 -211.6685881 145.67063263 -209.67578125 146.8359375 C-207.11447281 148.33520673 -204.57518882 149.86621418 -202.04296875 151.4140625 C-200.77876556 152.17207472 -199.51444796 152.92989616 -198.25 153.6875 C-197.16203125 154.35136719 -196.0740625 155.01523437 -194.953125 155.69921875 C-192.15051943 157.16645234 -192.15051943 157.16645234 -189.4609375 157.01953125 C-186.14461137 155.64562471 -183.89048636 153.48185797 -181.375 151 C-180.30823657 149.98461324 -179.2391835 148.97162708 -178.16796875 147.9609375 C-177.63478027 147.4565918 -177.1015918 146.95224609 -176.55224609 146.43261719 C-174.34396573 144.39452515 -172.02876278 142.50780923 -169.6875 140.625 C-165.20200385 137.0133018 -160.83790899 133.28594014 -156.5 129.5 C-152.1400555 125.6953857 -147.75366507 121.94760109 -143.25 118.3125 C-138.58378869 114.53673434 -134.1694655 110.53647821 -129.75390625 106.47265625 C-126.16792716 103.25290481 -122.43298508 100.24094824 -118.68359375 97.21484375 C-116.05291443 95.04367173 -113.52057576 92.79758643 -111 90.5 C-107.60401318 87.40444804 -104.13828469 84.44848793 -100.5625 81.5625 C-95.72694083 77.64897542 -91.12012952 73.53496401 -86.5390625 69.328125 C-82.02743881 65.19131313 -77.40014509 61.19389177 -72.74609375 57.21875 C-71.53901662 56.18755371 -70.33198659 55.15630227 -69.125 54.125 C-68.52075195 53.6088916 -67.91650391 53.0927832 -67.29394531 52.56103516 C-62.85583496 48.75984263 -58.49477131 44.88256369 -54.18359375 40.9375 C-51.85361488 38.87011267 -49.44704529 36.92667186 -47 35 C-48.36071483 30.91785551 -50.45528578 30.19464574 -54.0625 27.9375 C-56.07488854 26.67652842 -58.06398667 25.37535789 -60 24 C-60 23.34 -60 22.68 -60 22 C-58.35477193 21.39418705 -56.70877676 20.79045733 -55.0625 20.1875 C-54.14597656 19.85105469 -53.22945312 19.51460938 -52.28515625 19.16796875 C-49.94530579 18.33608375 -47.59193124 17.54183048 -45.23046875 16.7734375 C-38.30213243 14.47706851 -31.48014642 11.87899816 -24.64208984 9.3293457 C-22.24247816 8.43469562 -19.84201548 7.54236011 -17.44140625 6.65039062 C-15.90359592 6.07825915 -14.36583379 5.50599808 -12.828125 4.93359375 C-11.76081146 4.53665565 -11.76081146 4.53665565 -10.67193604 4.13169861 C-7.0963094 2.79777177 -3.53590437 1.43608549 0 0 Z " fill="#050505" transform="translate(789,462)"/>
<path d="M0 0 C0.66 0 1.32 0 2 0 C2 60.39 2 120.78 2 183 C-15.49 183 -32.98 183 -51 183 C-51.31677107 165.10104211 -51.57433626 147.20449775 -51.72537041 129.30350971 C-51.79738118 120.99062141 -51.89543755 112.67960563 -52.05615234 104.36791992 C-52.19626585 97.11817701 -52.28614536 89.86979053 -52.31723893 82.6187312 C-52.33540155 78.78301899 -52.37765667 74.95118478 -52.48022079 71.11672401 C-53.12695481 45.97326368 -53.12695481 45.97326368 -47.99224854 39.31991577 C-45.20109481 36.43051076 -42.18486826 34.16748843 -38.75447464 32.09192467 C-36.02856775 30.39541398 -33.69063591 28.33238416 -31.25 26.25 C-30.36441406 25.54101562 -29.47882812 24.83203125 -28.56640625 24.1015625 C-26.02440637 22.01998573 -23.60470665 19.8496162 -21.1875 17.625 C-16.52889076 13.37148722 -11.63370968 9.48383418 -6.64526367 5.62939453 C-4.32081216 3.83261929 -2.08003063 2.08003063 0 0 Z " fill="#020202" transform="translate(741,538)"/>
<path d="M0 0 C4.46650467 1.48883489 7.4083585 2.65312045 11.28125 5.01953125 C12.79525391 5.93702148 12.79525391 5.93702148 14.33984375 6.87304688 C15.38269531 7.51306641 16.42554688 8.15308594 17.5 8.8125 C19.53058821 10.0492643 21.56186982 11.28489067 23.59375 12.51953125 C24.12704926 12.87514633 24.66034851 13.23076141 25.20980835 13.59715271 C28.93627053 16.01670538 32.46330248 17.53143321 36.70166016 18.88891602 C43.39165452 21.35330643 48.94357896 23.92957539 53 30 C57.16043312 42.44512356 55.15014012 57.42854006 54.51062012 70.29541016 C54.24416925 76.22304248 54.14466732 82.15562116 54.01664734 88.0875473 C53.80437589 97.0684926 53.38305939 106.01745073 53 115 C35.51 115 18.02 115 0 115 C0 77.05 0 39.1 0 0 Z " fill="#000000" transform="translate(512,606)"/>
<path d="M0 0 C0 34.65 0 69.3 0 105 C-17.16 105 -34.32 105 -52 105 C-52.4411969 89.34865129 -52.4411969 89.34865129 -52.53710938 82.640625 C-52.60270435 78.07472922 -52.67999919 73.51127517 -52.82983398 68.94726562 C-52.94998355 65.26412959 -53.01524483 61.58361162 -53.04364967 57.89866638 C-53.06386887 56.49815131 -53.10336181 55.097769 -53.16303062 53.69837952 C-53.34473487 49.25746221 -53.29274759 45.26857649 -52 41 C-48.75060825 37.48565452 -45.10245169 35.38914712 -41 33 C-39.29808434 31.56153036 -37.62585245 30.08641457 -36 28.5625 C-31.79806099 24.69090211 -27.4531623 21.06509347 -23.01171875 17.47265625 C-18.87233577 14.0741745 -14.81882373 10.57914849 -10.77050781 7.07299805 C-2.57911469 0 -2.57911469 0 0 0 Z " fill="#000000" transform="translate(654,615)"/>
<path d="M0 0 C0 32.01 0 64.02 0 97 C-17.49 97 -34.98 97 -53 97 C-53.42220337 89.15170838 -53.82154943 81.34516722 -54.03500366 73.49534607 C-54.13997207 69.84035623 -54.27950877 66.19489138 -54.50878906 62.54541016 C-55.94400213 39.09782962 -55.94400213 39.09782962 -51.07110596 32.31512451 C-46.41138842 27.87018425 -41.14953873 24.858373 -35.34967041 22.13227844 C-32.28021927 20.65314616 -29.64603426 18.85068836 -26.875 16.875 C-25.9778125 16.28332031 -25.080625 15.69164062 -24.15625 15.08203125 C-21.54542092 13.3597888 -18.94284988 11.62655621 -16.34375 9.88671875 C-15.52406738 9.33838379 -14.70438477 8.79004883 -13.85986328 8.22509766 C-12.22759831 7.13296517 -10.59574913 6.04021094 -8.96435547 4.94677734 C-7.84891357 4.20161865 -7.84891357 4.20161865 -6.7109375 3.44140625 C-6.04368652 2.99482666 -5.37643555 2.54824707 -4.68896484 2.08813477 C-1.44783487 0 -1.44783487 0 0 0 Z " fill="#010101" transform="translate(476,624)"/>
<path d="M0 0 C-0.65871109 4.79918078 -2.56156411 8.79788322 -4.625 13.125 C-5.16459351 14.25941528 -5.16459351 14.25941528 -5.71508789 15.41674805 C-17.64962478 40.06079176 -35.90730497 57.71586871 -57.70385742 73.60083008 C-68.07067301 81.18763688 -78.18597402 89.19239298 -87.6171875 97.92578125 C-89 99 -89 99 -91 99 C-91.13277344 97.81664062 -91.26554687 96.63328125 -91.40234375 95.4140625 C-91.48822754 94.65262939 -91.57411133 93.89119629 -91.66259766 93.10668945 C-91.84644506 91.44700133 -92.02447068 89.78665836 -92.19677734 88.12573242 C-92.56138391 84.64965686 -92.94912271 81.25376217 -93.63671875 77.82421875 C-94.11525758 75.36261499 -94.4022458 73.47572714 -94 71 C-91.86171402 67.95756223 -89.02834835 66.10550847 -86 64 C-83.8686389 62.38254576 -81.74434661 60.75796464 -79.625 59.125 C-79.0671582 58.70049561 -78.50931641 58.27599121 -77.93457031 57.83862305 C-72.6969465 53.8344976 -67.80050974 49.51912995 -63 45 C-62.38769531 44.44054687 -61.77539062 43.88109375 -61.14453125 43.3046875 C-55.03694793 37.51855593 -50.22239336 30.6000259 -45.41015625 23.73046875 C-37.17446056 12.16399309 -24.8070101 3.87816541 -10.9375 0.5 C-7.18414135 0.02338303 -3.7683698 -0.16035616 0 0 Z " fill="#040303" transform="translate(460,558)"/>
<path d="M0 0 C1 3 1 3 0.1015625 5.1640625 C-6.9394651 16.89910849 -16.14668779 25.23951399 -29 30 C-33.68268655 30.98731597 -38.23919981 31.11951464 -43.00390625 31.10546875 C-44.56576892 31.11893639 -46.12761879 31.13396163 -47.68945312 31.15039062 C-50.11609512 31.17306496 -52.54128564 31.18760981 -54.96801758 31.17504883 C-64.97607189 31.13715117 -72.4261516 31.74200477 -81.31616211 36.71606445 C-84.18269859 38.08740215 -85.86792172 38.3639196 -89 38 C-92.22220894 35.76332568 -94.53560017 32.73332332 -95.5546875 28.9296875 C-95.79016128 25.2867696 -95.14880783 23.21121111 -93.0625 20.25 C-82.5402012 12.5193315 -71.78860243 13.11492842 -59.25390625 14.5078125 C-53.29391056 15.13551234 -47.36357368 15.1839011 -41.375 15.1875 C-40.29476562 15.19974609 -39.21453125 15.21199219 -38.1015625 15.22460938 C-23.60496302 15.25112754 -10.46777669 10.21854392 0 0 Z " fill="#070707" transform="translate(776,348)"/>
<path d="M0 0 C0.30550781 1.06476562 0.61101562 2.12953125 0.92578125 3.2265625 C4.17830217 13.79327705 8.67776318 21.11324954 15.78027344 29.48681641 C18.99328709 33.47285696 22 37.80855547 22 43 C16.89136104 43.0246501 11.78275641 43.04283607 6.67407227 43.05493164 C4.93480832 43.05997204 3.19554864 43.0668043 1.45629883 43.07543945 C-1.03825937 43.08751792 -3.53276173 43.09323108 -6.02734375 43.09765625 C-6.80963852 43.10281754 -7.59193329 43.10797882 -8.39793396 43.11329651 C-10.26567114 43.11349226 -12.13329204 43.06199694 -14 43 C-15 42 -15 42 -15.09765625 38.62109375 C-15.09098369 37.22652923 -15.07902532 35.83198257 -15.0625 34.4375 C-15.05798828 33.72658203 -15.05347656 33.01566406 -15.04882812 32.28320312 C-15.03700864 30.52209987 -15.01907263 28.76103964 -15 27 C-15.969375 26.855625 -16.93875 26.71125 -17.9375 26.5625 C-21 26 -21 26 -22 25 C-22.23363881 23.15108054 -22.41303635 21.29511969 -22.5625 19.4375 C-22.64628906 18.42558594 -22.73007812 17.41367187 -22.81640625 16.37109375 C-22.87699219 15.58863281 -22.93757813 14.80617188 -23 14 C-3.38297872 0 -3.38297872 0 0 0 Z " fill="#060606" transform="translate(395,677)"/>
<path d="M0 0 C0.495 0.99 0.495 0.99 1 2 C-6.32576486 13.83392786 -14.26744054 21.29960973 -28 25 C-31.04668976 25.2786101 -34.06739202 25.28503636 -37.125 25.25 C-37.96450195 25.24395752 -38.80400391 25.23791504 -39.66894531 25.23168945 C-46.26373485 25.12718117 -52.57407022 24.55284789 -59 23 C-59.71800781 22.8865625 -60.43601562 22.773125 -61.17578125 22.65625 C-63.0625 22.1875 -63.0625 22.1875 -66 20 C-68.17759573 14.16435678 -69.19814587 8.22411148 -69 2 C-65.35673715 2.64969871 -61.98939469 3.62091593 -58.5 4.84765625 C-56.92025391 5.38422852 -56.92025391 5.38422852 -55.30859375 5.93164062 C-53.1296111 6.67640506 -50.95493911 7.433922 -48.78515625 8.20507812 C-35.70860425 12.58770434 -23.67660975 12.1010153 -11.16552734 6.12353516 C-7.37309716 4.20408092 -3.67290224 2.1400216 0 0 Z " fill="#070606" transform="translate(781,384)"/>
<path d="M0 0 C11.46129424 4.05115019 20.8368345 14.45875746 26.375 25 C32.23280263 37.65476383 32.17542033 50.60672184 29.53515625 64.21875 C28.91034227 67.46595843 28.44998075 70.72446447 28 74 C28.73524902 74.38744385 29.47049805 74.7748877 30.22802734 75.17407227 C33.00789342 76.6430557 35.78446474 78.11805356 38.55908203 79.59692383 C40.32995481 80.53854817 42.10438869 81.47346562 43.87890625 82.40820312 C62.41492536 92.30455231 62.41492536 92.30455231 67 99 C63.535 99.99 63.535 99.99 60 101 C59.4539209 100.40251953 58.9078418 99.80503906 58.34521484 99.18945312 C55.84153553 96.85206024 53.52961015 95.50820402 50.4765625 93.96875 C49.38279297 93.41098877 48.28902344 92.85322754 47.16210938 92.27856445 C45.99486328 91.69163818 44.82761719 91.10471191 43.625 90.5 C41.18799362 89.25801962 38.75420508 88.0097878 36.3203125 86.76171875 C35.70742371 86.44824997 35.09453491 86.13478119 34.46307373 85.81181335 C28.43335015 82.72305058 22.45533727 79.54237692 16.5 76.3125 C15.5817041 75.82007813 14.6634082 75.32765625 13.71728516 74.8203125 C12.87214355 74.36011719 12.02700195 73.89992188 11.15625 73.42578125 C10.42212891 73.02786377 9.68800781 72.62994629 8.93164062 72.2199707 C6.99456149 70.99656519 5.5465113 69.68137439 4 68 C9.50808397 68.59015185 14.64878069 69.56663769 20 71 C21.66577064 62.41830664 22.26242758 53.97506638 22.375 45.25 C22.40078125 44.29279053 22.4265625 43.33558105 22.453125 42.34936523 C22.48043359 32.44402731 19.13333092 24.77004408 13.25 16.9375 C12.81896973 16.34751221 12.38793945 15.75752441 11.94384766 15.1496582 C8.67209113 10.73453296 5.15335432 6.58886301 1.3984375 2.57421875 C0 1 0 1 0 0 Z " fill="#EEEEEF" transform="translate(572,400)"/>
<path d="M0 0 C5.11668479 9.42748218 1.66246389 22.45121786 -0.34375 32.515625 C-1.09254335 35.9004218 -1.09254335 35.9004218 -1 39 C-0.22914063 38.566875 0.54171875 38.13375 1.3359375 37.6875 C2.33882813 37.130625 3.34171875 36.57375 4.375 36 C5.37273437 35.443125 6.37046875 34.88625 7.3984375 34.3125 C10 33 10 33 12 33 C12 33.66 12 34.32 12 35 C11.34 35.66 10.68 36.32 10 37 C9.505 37.99 9.505 37.99 9 39 C8.01 39 7.02 39 6 39 C6 39.66 6 40.32 6 41 C8.475 40.505 8.475 40.505 11 40 C8.02186864 42.4977876 4.9813185 44.6416854 1.6875 46.6875 C-5.08360885 51.16788546 -9.80273577 57.1389059 -14.3125 63.8125 C-21.18971548 73.9158692 -30.8125551 85.20837007 -41 92 C-41.99 91.67 -42.98 91.34 -44 91 C-43.34 89.68 -42.68 88.36 -42 87 C-42.99 87 -43.98 87 -45 87 C-43.50174324 83.34851085 -41.42568867 81.40958256 -38.4375 78.875 C-14.58290313 57.79658466 -5.59418456 30.50236943 0 0 Z " fill="#EEEEED" transform="translate(426,523)"/>
<path d="M0 0 C11.20500571 0.67838239 22.09233664 3.24458362 29.875 11.9375 C31.96230156 14.94566989 33.0767706 17.4749423 34 21 C33.195625 20.46375 32.39125 19.9275 31.5625 19.375 C31.0159375 19.01277344 30.469375 18.65054687 29.90625 18.27734375 C28.54413547 17.36461537 27.19088451 16.43860284 25.84375 15.50390625 C19.75520386 11.32324358 14.33790925 8.36025869 7 7 C10.10784461 17.50104018 14.62964626 24.28636967 24 30 C24 30.33 24 30.66 24 31 C17.89470468 31.42105485 14.85725058 31.10167827 10 27 C3.76400074 20.76400074 0.08483319 12.08999154 -0.0625 3.25 C-0.041875 2.1775 -0.02125 1.105 0 0 Z " fill="#F1F0EE" transform="translate(635,360)"/>
<path d="M0 0 C1.5625 1.1875 1.5625 1.1875 3 3 C2.86523259 8.0942082 -0.26102486 10.92309761 -3.625 14.375 C-4.16970947 14.94790771 -4.71441895 15.52081543 -5.27563477 16.11108398 C-6.84040882 17.75075877 -8.41795926 19.37700367 -10 21 C-10.71800781 21.74636719 -11.43601562 22.49273438 -12.17578125 23.26171875 C-18.33264033 29.55509356 -18.33264033 29.55509356 -22 32 C-22.99 31.67 -23.98 31.34 -25 31 C-24.34 29.68 -23.68 28.36 -23 27 C-23.99 27 -24.98 27 -26 27 C-24.50174324 23.34851085 -22.42568867 21.40958256 -19.4375 18.875 C-13.33393832 13.52441763 -7.51725791 7.77588687 -3 1 C-2.01 0.67 -1.02 0.34 0 0 Z " fill="#F4F3F2" transform="translate(407,583)"/>
<path d="M0 0 C1.32 0.33 2.64 0.66 4 1 C3.67 1.66 3.34 2.32 3 3 C2.67 3 2.34 3 2 3 C1.67 39.63 1.34 76.26 1 114 C18.16 114 35.32 114 53 114 C53 114.33 53 114.66 53 115 C35.51 115 18.02 115 0 115 C0 77.05 0 39.1 0 0 Z " fill="#343335" transform="translate(512,606)"/>
<path d="M0 0 C0.66 0.33 1.32 0.66 2 1 C0.69791667 2.49739583 -0.60416667 3.99479167 -1.90625 5.4921875 C-3.19572458 6.95936421 -3.19572458 6.95936421 -3 9 C-1.68 9.33 -0.36 9.66 1 10 C-2.48314003 12.12456298 -5.97034992 14.24226078 -9.46142578 16.35375977 C-10.6477783 17.07259935 -11.83301418 17.79328525 -13.01708984 18.51586914 C-14.72196491 19.55582862 -16.43124791 20.58855094 -18.140625 21.62109375 C-19.16704102 22.2442749 -20.19345703 22.86745605 -21.25097656 23.50952148 C-23.58340609 24.77412915 -25.41132562 25.54237869 -28 26 C-24.06920532 21.1532746 -19.92335368 16.98079769 -15.125 13 C-13.89557902 11.96384334 -12.66641117 10.92738626 -11.4375 9.890625 C-10.8496875 9.39755859 -10.261875 8.90449219 -9.65625 8.39648438 C-6.39496936 5.64670176 -3.19911595 2.82158053 0 0 Z " fill="#151515" transform="translate(360,677)"/>
<path d="M0 0 C1.53967692 0.02513957 3.07939384 0.04794266 4.61914062 0.06835938 C8.35110657 0.12284868 12.08153866 0.20880014 15.8125 0.3125 C15.8125 0.6425 15.8125 0.9725 15.8125 1.3125 C14.85883545 1.33755615 13.9051709 1.3626123 12.92260742 1.38842773 C9.38340893 1.48262071 5.84440125 1.58281231 2.30541992 1.68481445 C0.77388982 1.72811833 -0.75768715 1.76979667 -2.28930664 1.80981445 C-4.49119182 1.86762732 -6.69284211 1.93128969 -8.89453125 1.99609375 C-9.57900833 2.01280624 -10.26348541 2.02951874 -10.96870422 2.04673767 C-13.95870104 2.1398555 -16.32812311 2.35937437 -19.1875 3.3125 C-19.1875 3.9725 -19.1875 4.6325 -19.1875 5.3125 C-18.5275 5.6425 -17.8675 5.9725 -17.1875 6.3125 C-18.92051901 7.04570035 -20.65355596 7.77885833 -22.38671875 8.51171875 C-24.26527836 9.30977631 -24.26527836 9.30977631 -26.25 10.5 C-29.21907803 11.74509724 -30.97560086 11.80663833 -34.1875 11.3125 C-37.10355387 9.59655494 -39.76804287 7.6828311 -42.1875 5.3125 C-42.1875 4.6525 -42.1875 3.9925 -42.1875 3.3125 C-37.4375 4.0625 -37.4375 4.0625 -35.1875 6.3125 C-30.50224147 6.21281365 -27.58689939 5.01729656 -23.5078125 2.7734375 C-15.82943284 -0.78178197 -8.27115423 -0.23693178 0 0 Z " fill="#CDCAC9" transform="translate(722.1875,378.6875)"/>
<path d="M0 0 C4.26448774 3.64817482 6.55818623 8.20155135 9.1875 13.0625 C9.63802734 13.87783203 10.08855469 14.69316406 10.55273438 15.53320312 C12.27650557 18.67837486 13.86320091 21.58960272 15 25 C13.5625 28.1875 13.5625 28.1875 12 31 C5.14018605 22.42523256 1.42062584 10.79675638 0 0 Z " fill="#EFEEEE" transform="translate(524,484)"/>
<path d="M0 0 C8.01512361 2.20415899 14.26432371 6.17505476 19 13 C20.3125 16.375 20.3125 16.375 21 19 C20.195625 18.46375 19.39125 17.9275 18.5625 17.375 C18.0159375 17.01277344 17.469375 16.65054687 16.90625 16.27734375 C15.54413547 15.36461537 14.19088451 14.43860284 12.84375 13.50390625 C8.35359632 10.4207699 4.08924401 7.94907218 -1 6 C-0.34 5.01 0.32 4.02 1 3 C0.67 2.01 0.34 1.02 0 0 Z " fill="#E8E5E2" transform="translate(648,362)"/>
<path d="M0 0 C3.40357628 1.45867555 5.78825606 2.99834751 8 6 C8.50260215 9.47002029 8.5984947 12.8030106 7 16 C3.87279065 15.16607751 1.52314688 14.45564406 -0.9375 12.3125 C-2.85294604 8.14358804 -1.39382847 4.1814854 0 0 Z " fill="#EBEAEA" transform="translate(683,411)"/>
<path d="M0 0 C0.66 0.33 1.32 0.66 2 1 C1.525625 1.598125 1.05125 2.19625 0.5625 2.8125 C-1.16465744 5.00382924 -1.16465744 5.00382924 -2 8 C-2.680625 8.556875 -3.36125 9.11375 -4.0625 9.6875 C-6.97534412 13.1641204 -6.35448444 15.53349602 -6 20 C-5.67 20.99 -5.34 21.98 -5 23 C-6.32 23 -7.64 23 -9 23 C-11.45754206 18.65506564 -11.67330673 14.90065023 -11 10 C-8.457988 4.61093457 -5.24602844 2.42871687 0 0 Z " fill="#EDE9E6" transform="translate(688,359)"/>
<path d="M0 0 C0.66 0 1.32 0 2 0 C2 0.66 2 1.32 2 2 C1.34 2 0.68 2 0 2 C0.2165625 2.83144531 0.433125 3.66289062 0.65625 4.51953125 C0.9346875 5.60621094 1.213125 6.69289063 1.5 7.8125 C1.7784375 8.89144531 2.056875 9.97039062 2.34375 11.08203125 C3 14 3 14 3 17 C2.34 17 1.68 17 1 17 C1.061875 18.423125 1.061875 18.423125 1.125 19.875 C1 23 1 23 -1 25 C-1.26554688 23.85402344 -1.53109375 22.70804687 -1.8046875 21.52734375 C-2.16136742 19.99737464 -2.51814337 18.46742791 -2.875 16.9375 C-3.13603516 15.80924805 -3.13603516 15.80924805 -3.40234375 14.65820312 C-4.47664764 10.06256983 -5.66534057 5.52702051 -7 1 C-6.34 1 -5.68 1 -5 1 C-4.67 2.65 -4.34 4.3 -4 6 C-3.34 6 -2.68 6 -2 6 C-1.855625 5.195625 -1.71125 4.39125 -1.5625 3.5625 C-1 1 -1 1 0 0 Z " fill="#EEECEA" transform="translate(712,384)"/>
<path d="M0 0 C0.66 0.33 1.32 0.66 2 1 C-1.3 4.3 -4.6 7.6 -8 11 C-7.34 11.66 -6.68 12.32 -6 13 C-5.34 13.66 -4.68 14.32 -4 15 C-8.455 18.96 -8.455 18.96 -13 23 C-13.99 22.67 -14.98 22.34 -16 22 C-15.34 20.68 -14.68 19.36 -14 18 C-14.99 18 -15.98 18 -17 18 C-15.47589059 14.24507123 -13.22731235 12.19214276 -10.1875 9.5625 C-6.6650456 6.47334317 -3.25714702 3.36571859 0 0 Z " fill="#E7E6E5" transform="translate(398,592)"/>
<path d="M0 0 C3.32503964 1.71289921 3.83380054 4.68357647 5.0625 8.0625 C2.0925 8.7225 -0.8775 9.3825 -3.9375 10.0625 C-4.1328125 4.0078125 -4.1328125 4.0078125 -3.9375 2.0625 C-1.9375 0.0625 -1.9375 0.0625 0 0 Z " fill="#E4E2E1" transform="translate(691.9375,466.9375)"/>
<path d="M0 0 C2.44989101 3.74235319 2.23086143 7.44225419 2.125 11.75 C2.11597656 12.44738281 2.10695313 13.14476562 2.09765625 13.86328125 C2.07419888 15.57566958 2.03833104 17.28788004 2 19 C1.34 17.68 0.68 16.36 0 15 C-0.99 16.32 -1.98 17.64 -3 19 C-2.37679879 12.56025419 -1.35991738 6.32427599 0 0 Z " fill="#B4B3B2" transform="translate(426,523)"/>
<path d="M0 0 C3.72357462 3.19163538 6.71201844 7.22140176 8 12 C7.1015625 14.25 7.1015625 14.25 6 16 C5.34 16 4.68 16 4 16 C2.33445973 10.69960141 0.72724594 5.52706913 0 0 Z " fill="#E4E4E3" transform="translate(524,484)"/>
<path d="M0 0 C1.32 0.33 2.64 0.66 4 1 C3.67 1.66 3.34 2.32 3 3 C2.67 3 2.34 3 2 3 C1.67 15.21 1.34 27.42 1 40 C0.67 40 0.34 40 0 40 C0 26.8 0 13.6 0 0 Z " fill="#1A191A" transform="translate(512,606)"/>
<path d="M0 0 C2 1 4 2 6 3 C6.33 2.34 6.66 1.68 7 1 C10.22265625 6.2734375 10.22265625 6.2734375 11 8 C10.67 8.66 10.34 9.32 10 10 C8.32756598 8.71580959 6.66218553 7.42242815 5 6.125 C3.6078125 5.04605469 3.6078125 5.04605469 2.1875 3.9453125 C1.465625 3.30335938 0.74375 2.66140625 0 2 C0 1.34 0 0.68 0 0 Z " fill="#DDD9D6" transform="translate(658,371)"/>
<path d="M0 0 C2.56269497 1.04109483 4.02610343 2.02610343 6 4 C6 4.99 6 5.98 6 7 C0.33846154 5.52307692 0.33846154 5.52307692 -1.375 2.875 C-1.58125 2.25625 -1.7875 1.6375 -2 1 C-1.34 0.67 -0.68 0.34 0 0 Z " fill="#F3F0EC" transform="translate(658,367)"/>
<path d="M0 0 C-0.99 0.495 -0.99 0.495 -2 1 C-2 1.66 -2 2.32 -2 3 C-1.34 3.33 -0.68 3.66 0 4 C-2.31 4.33 -4.62 4.66 -7 5 C-7 4.34 -7 3.68 -7 3 C-7.66 2.67 -8.32 2.34 -9 2 C-5.86501708 0.14223235 -3.62528568 -0.20140476 0 0 Z " fill="#EAE8E8" transform="translate(705,381)"/>
<path d="M0 0 C0.433125 0.61875 0.86625 1.2375 1.3125 1.875 C2.99740483 4.2197245 2.99740483 4.2197245 6 6 C2.535 7.485 2.535 7.485 -1 9 C-0.67 6.03 -0.34 3.06 0 0 Z " fill="#1F1E1E" transform="translate(425,554)"/>
<path d="M0 0 C3.68754757 0.49831724 5.60490662 1.10067643 8 4 C5.36 4 2.72 4 0 4 C0 2.68 0 1.36 0 0 Z " fill="#DEDEDE" transform="translate(651,387)"/>
<path d="M0 0 C0.33 0.66 0.66 1.32 1 2 C0.01 3.32 -0.98 4.64 -2 6 C-2 5.34 -2 4.68 -2 4 C-2.598125 4.515625 -3.19625 5.03125 -3.8125 5.5625 C-4.534375 6.036875 -5.25625 6.51125 -6 7 C-6.99 6.67 -7.98 6.34 -9 6 C-6.11964908 3.75972706 -3.15133488 1.83827868 0 0 Z " fill="#1E1F1F" transform="translate(781,384)"/>
<path d="M0 0 C0.66 0.33 1.32 0.66 2 1 C-0.31 3.64 -2.62 6.28 -5 9 C-5.99 8.67 -6.98 8.34 -8 8 C-5.33333333 5.33333333 -2.66666667 2.66666667 0 0 Z " fill="#1A1A1A" transform="translate(690,542)"/>
<path d="M0 0 C3.37503669 1.1858237 5.64722731 2.27573689 8 5 C7.01 6.485 7.01 6.485 6 8 C4.02 5.36 2.04 2.72 0 0 Z " fill="#D2D1D1" transform="translate(572,400)"/>
<path d="M0 0 C0.66 0.33 1.32 0.66 2 1 C-0.02882906 3.94180214 -2.05819786 5.97117094 -5 8 C-5.66 7.67 -6.32 7.34 -7 7 C-4.69 4.69 -2.38 2.38 0 0 Z " fill="#1C1D1D" transform="translate(339,695)"/>
<path d="M0 0 C1.65 0.99 3.3 1.98 5 3 C3.625 5 3.625 5 2 7 C1.34 7 0.68 7 0 7 C0 4.69 0 2.38 0 0 Z " fill="#403F3F" transform="translate(369,650)"/>
<path d="M0 0 C0.66 0.33 1.32 0.66 2 1 C-0.64 3.64 -3.28 6.28 -6 9 C-6.66 8.34 -7.32 7.68 -8 7 C-5.36 4.69 -2.72 2.38 0 0 Z " fill="#202121" transform="translate(711,563)"/>
<path d="M0 0 C1.32 0.66 2.64 1.32 4 2 C1.03 4.475 1.03 4.475 -2 7 C-2 3.89448334 -1.4606285 2.64738916 0 0 Z " fill="#E7E7E7" transform="translate(672,553)"/>
<path d="M0 0 C2.64752004 2.57784846 4.94432065 4.91648098 7 8 C4 8 4 8 2.375 6.8125 C0.68587944 4.58593199 0.37047118 2.74148672 0 0 Z " fill="#DEDCDD" transform="translate(645,378)"/>
<path d="M0 0 C-1.98 1.32 -3.96 2.64 -6 4 C-6.66 3.01 -7.32 2.02 -8 1 C-3.375 -1.125 -3.375 -1.125 0 0 Z " fill="#E9E7E5" transform="translate(389,655)"/>
<path d="M0 0 C0.66 0.33 1.32 0.66 2 1 C-0.68841859 3.25245881 -2.64641875 4.88213958 -6 6 C-6.33 5.34 -6.66 4.68 -7 4 C-1.7265625 0.77734375 -1.7265625 0.77734375 0 0 Z " fill="#E3E1DF" transform="translate(366,618)"/>
<path d="M0 0 C2.475 0.99 2.475 0.99 5 2 C5 2.99 5 3.98 5 5 C2 5 2 5 0 4 C0 2.68 0 1.36 0 0 Z " fill="#E3E2E2" transform="translate(579,405)"/>
<path d="M0 0 C2.475 0.495 2.475 0.495 5 1 C4.01 1.33 3.02 1.66 2 2 C2 3.98 2 5.96 2 8 C-0.1519437 4.77208445 -0.20086443 3.71599191 0 0 Z " fill="#403C3B" transform="translate(712,386)"/>
<path d="M0 0 C0.33 0.66 0.66 1.32 1 2 C-1.31 2.33 -3.62 2.66 -6 3 C-6 3.66 -6 4.32 -6 5 C-6.99 4.67 -7.98 4.34 -9 4 C-8.34 3.01 -7.68 2.02 -7 1 C-3.375 0.3125 -3.375 0.3125 0 0 Z " fill="#CAC5C5" transform="translate(694,384)"/>
</svg>
